<svg width="80" height="14" viewBox="0 0 80 14" fill="none" xmlns="http://www.w3.org/2000/svg">
<g clip-path="url(#clip0_351_9)">
<path d="M17.5979 1.8541C18.1966 0.0114801 20.8034 0.0114799 21.4021 1.8541L21.6329 2.56434C21.9006 3.38838 22.6685 3.9463 23.535 3.9463H24.2818C26.2192 3.9463 27.0248 6.42554 25.4574 7.56434L24.8532 8.00329C24.1522 8.51258 23.8589 9.41531 24.1266 10.2394L24.3574 10.9496C24.9561 12.7922 22.8472 14.3245 21.2797 13.1857L20.6756 12.7467C19.9746 12.2374 19.0254 12.2374 18.3244 12.7467L17.7203 13.1857C16.1528 14.3245 14.0439 12.7922 14.6426 10.9496L14.8734 10.2394C15.1411 9.41531 14.8478 8.51258 14.1468 8.00329L13.5426 7.56434C11.9752 6.42554 12.7808 3.9463 14.7182 3.9463H15.465C16.3315 3.9463 17.0994 3.38838 17.3671 2.56434L17.5979 1.8541Z" fill="#EEEA92"/>
<path d="M20.9266 2.00861L21.1574 2.71885C21.492 3.7489 22.4519 4.4463 23.535 4.4463H24.2818C25.7349 4.4463 26.339 6.30573 25.1635 7.15983L24.5593 7.59878C23.6831 8.23539 23.3164 9.36381 23.6511 10.3939L23.8819 11.1041C24.3309 12.4861 22.7492 13.6353 21.5736 12.7812L20.9695 12.3422C20.0932 11.7056 18.9068 11.7056 18.0305 12.3422L17.4264 12.7812C16.2508 13.6353 14.6691 12.4861 15.1181 11.1041L15.3489 10.3939C15.6836 9.36381 15.3169 8.23539 14.4407 7.59878L13.8365 7.15983C12.661 6.30573 13.2651 4.4463 14.7182 4.4463H15.465C16.5481 4.4463 17.508 3.7489 17.8426 2.71885L18.0734 2.00861C18.5224 0.626644 20.4776 0.626644 20.9266 2.00861Z" stroke="black" stroke-opacity="0.67"/>
<path d="M31.5979 1.8541C32.1966 0.0114801 34.8034 0.0114799 35.4021 1.8541L35.6329 2.56434C35.9006 3.38838 36.6685 3.9463 37.535 3.9463H38.2818C40.2192 3.9463 41.0248 6.42554 39.4574 7.56434L38.8532 8.00329C38.1522 8.51258 37.8589 9.41531 38.1266 10.2394L38.3574 10.9496C38.9561 12.7922 36.8472 14.3245 35.2797 13.1857L34.6756 12.7467C33.9746 12.2374 33.0254 12.2374 32.3244 12.7467L31.7203 13.1857C30.1528 14.3245 28.0439 12.7922 28.6426 10.9496L28.8734 10.2394C29.1411 9.41531 28.8478 8.51258 28.1468 8.00329L27.5426 7.56434C25.9752 6.42554 26.7808 3.9463 28.7182 3.9463H29.465C30.3315 3.9463 31.0994 3.38838 31.3671 2.56434L31.5979 1.8541Z" fill="#EEEA92"/>
<path d="M34.9266 2.00861L35.1574 2.71885C35.492 3.7489 36.4519 4.4463 37.535 4.4463H38.2818C39.7349 4.4463 40.339 6.30573 39.1635 7.15983L38.5593 7.59878C37.6831 8.23539 37.3164 9.36381 37.6511 10.3939L37.8819 11.1041C38.3309 12.4861 36.7492 13.6353 35.5736 12.7812L34.9695 12.3422C34.0932 11.7056 32.9068 11.7056 32.0305 12.3422L31.4264 12.7812C30.2508 13.6353 28.6691 12.4861 29.1181 11.1041L29.3489 10.3939C29.6836 9.36381 29.3169 8.23539 28.4407 7.59878L27.8365 7.15983C26.661 6.30573 27.2651 4.4463 28.7182 4.4463H29.465C30.5481 4.4463 31.508 3.7489 31.8426 2.71885L32.0734 2.00861C32.5224 0.626644 34.4776 0.626644 34.9266 2.00861Z" stroke="black" stroke-opacity="0.67"/>
<path d="M45.5979 1.8541C46.1966 0.0114801 48.8034 0.0114799 49.4021 1.8541L49.6329 2.56434C49.9006 3.38838 50.6685 3.9463 51.535 3.9463H52.2818C54.2192 3.9463 55.0248 6.42554 53.4574 7.56434L52.8532 8.00329C52.1522 8.51258 51.8589 9.41531 52.1266 10.2394L52.3574 10.9496C52.9561 12.7922 50.8472 14.3245 49.2797 13.1857L48.6756 12.7467C47.9746 12.2374 47.0254 12.2374 46.3244 12.7467L45.7203 13.1857C44.1528 14.3245 42.0439 12.7922 42.6426 10.9496L42.8734 10.2394C43.1411 9.41531 42.8478 8.51258 42.1468 8.00329L41.5426 7.56434C39.9752 6.42554 40.7808 3.9463 42.7182 3.9463H43.465C44.3315 3.9463 45.0994 3.38838 45.3671 2.56434L45.5979 1.8541Z" fill="#EEEA92"/>
<path d="M48.9266 2.00861L49.1574 2.71885C49.492 3.7489 50.4519 4.4463 51.535 4.4463H52.2818C53.7349 4.4463 54.339 6.30573 53.1635 7.15983L52.5593 7.59878C51.6831 8.23539 51.3164 9.36381 51.6511 10.3939L51.8819 11.1041C52.3309 12.4861 50.7492 13.6353 49.5736 12.7812L48.9695 12.3422C48.0932 11.7056 46.9068 11.7056 46.0305 12.3422L45.4264 12.7812C44.2508 13.6353 42.6691 12.4861 43.1181 11.1041L43.3489 10.3939C43.6836 9.36381 43.3169 8.23539 42.4407 7.59878L41.8365 7.15983C40.661 6.30573 41.2651 4.4463 42.7182 4.4463H43.465C44.5481 4.4463 45.508 3.7489 45.8426 2.71885L46.0734 2.00861C46.5224 0.626644 48.4776 0.626644 48.9266 2.00861Z" stroke="black" stroke-opacity="0.67"/>
<path d="M59.5979 1.8541C60.1966 0.0114801 62.8034 0.0114799 63.4021 1.8541L63.6329 2.56434C63.9006 3.38838 64.6685 3.9463 65.535 3.9463H66.2818C68.2192 3.9463 69.0248 6.42554 67.4574 7.56434L66.8532 8.00329C66.1522 8.51258 65.8589 9.41531 66.1266 10.2394L66.3574 10.9496C66.9561 12.7922 64.8472 14.3245 63.2797 13.1857L62.6756 12.7467C61.9746 12.2374 61.0254 12.2374 60.3244 12.7467L59.7203 13.1857C58.1528 14.3245 56.0439 12.7922 56.6426 10.9496L56.8734 10.2394C57.1411 9.41531 56.8478 8.51258 56.1468 8.00329L55.5426 7.56434C53.9752 6.42554 54.7808 3.9463 56.7182 3.9463H57.465C58.3315 3.9463 59.0994 3.38838 59.3671 2.56434L59.5979 1.8541Z" fill="#EEEA92"/>
<path d="M62.9266 2.00861L63.1574 2.71885C63.492 3.7489 64.4519 4.4463 65.535 4.4463H66.2818C67.7349 4.4463 68.339 6.30573 67.1635 7.15983L66.5593 7.59878C65.6831 8.23539 65.3164 9.36381 65.6511 10.3939L65.8819 11.1041C66.3309 12.4861 64.7492 13.6353 63.5736 12.7812L62.9695 12.3422C62.0932 11.7056 60.9068 11.7056 60.0305 12.3422L59.4264 12.7812C58.2508 13.6353 56.6691 12.4861 57.1181 11.1041L57.3489 10.3939C57.6836 9.36381 57.3169 8.23539 56.4407 7.59878L55.8365 7.15983C54.661 6.30573 55.2651 4.4463 56.7182 4.4463H57.465C58.5481 4.4463 59.508 3.7489 59.8426 2.71885L60.0734 2.00861C60.5224 0.626644 62.4776 0.626644 62.9266 2.00861Z" stroke="black" stroke-opacity="0.67"/>
</g>
<defs>
<clipPath id="clip0_351_9">
<rect width="80" height="14" fill="white"/>
</clipPath>
</defs>
</svg>
