<svg width="80" height="14" viewBox="0 0 80 14" fill="none" xmlns="http://www.w3.org/2000/svg">
<g clip-path="url(#clip0_351_9)">
<path d="M10.5979 1.8541C11.1966 0.0114801 13.8034 0.0114799 14.4021 1.8541L14.6329 2.56434C14.9006 3.38838 15.6685 3.9463 16.535 3.9463H17.2818C19.2192 3.9463 20.0248 6.42554 18.4574 7.56434L17.8532 8.00329C17.1522 8.51258 16.8589 9.41531 17.1266 10.2394L17.3574 10.9496C17.9561 12.7922 15.8472 14.3245 14.2797 13.1857L13.6756 12.7467C12.9746 12.2374 12.0254 12.2374 11.3244 12.7467L10.7203 13.1857C9.15284 14.3245 7.04388 12.7922 7.64258 10.9496L7.87335 10.2394C8.1411 9.41531 7.84778 8.51258 7.14681 8.00329L6.54265 7.56434C4.97522 6.42554 5.78077 3.9463 7.71822 3.9463H8.465C9.33146 3.9463 10.0994 3.38838 10.3671 2.56434L10.5979 1.8541Z" fill="#EEEA92"/>
<path d="M13.9266 2.00861L14.1574 2.71885C14.492 3.7489 15.4519 4.4463 16.535 4.4463H17.2818C18.7349 4.4463 19.339 6.30573 18.1635 7.15983L17.5593 7.59878C16.6831 8.23539 16.3164 9.36381 16.6511 10.3939L16.8819 11.1041C17.3309 12.4861 15.7492 13.6353 14.5736 12.7812L13.9695 12.3422C13.0932 11.7056 11.9068 11.7056 11.0305 12.3422L10.4264 12.7812C9.2508 13.6353 7.66908 12.4861 8.11811 11.1041L8.34888 10.3939C8.68357 9.36381 8.31692 8.23539 7.4407 7.59878L6.83654 7.15983C5.66097 6.30573 6.26513 4.4463 7.71822 4.4463H8.465C9.54807 4.4463 10.508 3.7489 10.8426 2.71885L11.0734 2.00861C11.5224 0.626644 13.4776 0.626644 13.9266 2.00861Z" stroke="black" stroke-opacity="0.67"/>
<path d="M24.5979 1.8541C25.1966 0.0114801 27.8034 0.0114799 28.4021 1.8541L28.6329 2.56434C28.9006 3.38838 29.6685 3.9463 30.535 3.9463H31.2818C33.2192 3.9463 34.0248 6.42554 32.4574 7.56434L31.8532 8.00329C31.1522 8.51258 30.8589 9.41531 31.1266 10.2394L31.3574 10.9496C31.9561 12.7922 29.8472 14.3245 28.2797 13.1857L27.6756 12.7467C26.9746 12.2374 26.0254 12.2374 25.3244 12.7467L24.7203 13.1857C23.1528 14.3245 21.0439 12.7922 21.6426 10.9496L21.8734 10.2394C22.1411 9.41531 21.8478 8.51258 21.1468 8.00329L20.5426 7.56434C18.9752 6.42554 19.7808 3.9463 21.7182 3.9463H22.465C23.3315 3.9463 24.0994 3.38838 24.3671 2.56434L24.5979 1.8541Z" fill="#EEEA92"/>
<path d="M27.9266 2.00861L28.1574 2.71885C28.492 3.7489 29.4519 4.4463 30.535 4.4463H31.2818C32.7349 4.4463 33.339 6.30573 32.1635 7.15983L31.5593 7.59878C30.6831 8.23539 30.3164 9.36381 30.6511 10.3939L30.8819 11.1041C31.3309 12.4861 29.7492 13.6353 28.5736 12.7812L27.9695 12.3422C27.0932 11.7056 25.9068 11.7056 25.0305 12.3422L24.4264 12.7812C23.2508 13.6353 21.6691 12.4861 22.1181 11.1041L22.3489 10.3939C22.6836 9.36381 22.3169 8.23539 21.4407 7.59878L20.8365 7.15983C19.661 6.30573 20.2651 4.4463 21.7182 4.4463H22.465C23.5481 4.4463 24.508 3.7489 24.8426 2.71885L25.0734 2.00861C25.5224 0.626644 27.4776 0.626644 27.9266 2.00861Z" stroke="black" stroke-opacity="0.67"/>
<path d="M38.5979 1.8541C39.1966 0.0114801 41.8034 0.0114799 42.4021 1.8541L42.6329 2.56434C42.9006 3.38838 43.6685 3.9463 44.535 3.9463H45.2818C47.2192 3.9463 48.0248 6.42554 46.4574 7.56434L45.8532 8.00329C45.1522 8.51258 44.8589 9.41531 45.1266 10.2394L45.3574 10.9496C45.9561 12.7922 43.8472 14.3245 42.2797 13.1857L41.6756 12.7467C40.9746 12.2374 40.0254 12.2374 39.3244 12.7467L38.7203 13.1857C37.1528 14.3245 35.0439 12.7922 35.6426 10.9496L35.8734 10.2394C36.1411 9.41531 35.8478 8.51258 35.1468 8.00329L34.5426 7.56434C32.9752 6.42554 33.7808 3.9463 35.7182 3.9463H36.465C37.3315 3.9463 38.0994 3.38838 38.3671 2.56434L38.5979 1.8541Z" fill="#EEEA92"/>
<path d="M41.9266 2.00861L42.1574 2.71885C42.492 3.7489 43.4519 4.4463 44.535 4.4463H45.2818C46.7349 4.4463 47.339 6.30573 46.1635 7.15983L45.5593 7.59878C44.6831 8.23539 44.3164 9.36381 44.6511 10.3939L44.8819 11.1041C45.3309 12.4861 43.7492 13.6353 42.5736 12.7812L41.9695 12.3422C41.0932 11.7056 39.9068 11.7056 39.0305 12.3422L38.4264 12.7812C37.2508 13.6353 35.6691 12.4861 36.1181 11.1041L36.3489 10.3939C36.6836 9.36381 36.3169 8.23539 35.4407 7.59878L34.8365 7.15983C33.661 6.30573 34.2651 4.4463 35.7182 4.4463H36.465C37.5481 4.4463 38.508 3.7489 38.8426 2.71885L39.0734 2.00861C39.5224 0.626644 41.4776 0.626644 41.9266 2.00861Z" stroke="black" stroke-opacity="0.67"/>
<path d="M52.5979 1.8541C53.1966 0.0114801 55.8034 0.0114799 56.4021 1.8541L56.6329 2.56434C56.9006 3.38838 57.6685 3.9463 58.535 3.9463H59.2818C61.2192 3.9463 62.0248 6.42554 60.4574 7.56434L59.8532 8.00329C59.1522 8.51258 58.8589 9.41531 59.1266 10.2394L59.3574 10.9496C59.9561 12.7922 57.8472 14.3245 56.2797 13.1857L55.6756 12.7467C54.9746 12.2374 54.0254 12.2374 53.3244 12.7467L52.7203 13.1857C51.1528 14.3245 49.0439 12.7922 49.6426 10.9496L49.8734 10.2394C50.1411 9.41531 49.8478 8.51258 49.1468 8.00329L48.5426 7.56434C46.9752 6.42554 47.7808 3.9463 49.7182 3.9463H50.465C51.3315 3.9463 52.0994 3.38838 52.3671 2.56434L52.5979 1.8541Z" fill="#EEEA92"/>
<path d="M55.9266 2.00861L56.1574 2.71885C56.492 3.7489 57.4519 4.4463 58.535 4.4463H59.2818C60.7349 4.4463 61.339 6.30573 60.1635 7.15983L59.5593 7.59878C58.6831 8.23539 58.3164 9.36381 58.6511 10.3939L58.8819 11.1041C59.3309 12.4861 57.7492 13.6353 56.5736 12.7812L55.9695 12.3422C55.0932 11.7056 53.9068 11.7056 53.0305 12.3422L52.4264 12.7812C51.2508 13.6353 49.6691 12.4861 50.1181 11.1041L50.3489 10.3939C50.6836 9.36381 50.3169 8.23539 49.4407 7.59878L48.8365 7.15983C47.661 6.30573 48.2651 4.4463 49.7182 4.4463H50.465C51.5481 4.4463 52.508 3.7489 52.8426 2.71885L53.0734 2.00861C53.5224 0.626644 55.4776 0.626644 55.9266 2.00861Z" stroke="black" stroke-opacity="0.67"/>
<path d="M66.5979 1.8541C67.1966 0.0114801 69.8034 0.0114799 70.4021 1.8541L70.6329 2.56434C70.9006 3.38838 71.6685 3.9463 72.535 3.9463H73.2818C75.2192 3.9463 76.0248 6.42554 74.4574 7.56434L73.8532 8.00329C73.1522 8.51258 72.8589 9.41531 73.1266 10.2394L73.3574 10.9496C73.9561 12.7922 71.8472 14.3245 70.2797 13.1857L69.6756 12.7467C68.9746 12.2374 68.0254 12.2374 67.3244 12.7467L66.7203 13.1857C65.1528 14.3245 63.0439 12.7922 63.6426 10.9496L63.8734 10.2394C64.1411 9.41531 63.8478 8.51258 63.1468 8.00329L62.5426 7.56434C60.9752 6.42554 61.7808 3.9463 63.7182 3.9463H64.465C65.3315 3.9463 66.0994 3.38838 66.3671 2.56434L66.5979 1.8541Z" fill="#EEEA92"/>
<path d="M69.9266 2.00861L70.1574 2.71885C70.492 3.7489 71.4519 4.4463 72.535 4.4463H73.2818C74.7349 4.4463 75.339 6.30573 74.1635 7.15983L73.5593 7.59878C72.6831 8.23539 72.3164 9.36381 72.6511 10.3939L72.8819 11.1041C73.3309 12.4861 71.7492 13.6353 70.5736 12.7812L69.9695 12.3422C69.0932 11.7056 67.9068 11.7056 67.0305 12.3422L66.4264 12.7812C65.2508 13.6353 63.6691 12.4861 64.1181 11.1041L64.3489 10.3939C64.6836 9.36381 64.3169 8.23539 63.4407 7.59878L62.8365 7.15983C61.661 6.30573 62.2651 4.4463 63.7182 4.4463H64.465C65.5481 4.4463 66.508 3.7489 66.8426 2.71885L67.0734 2.00861C67.5224 0.626644 69.4776 0.626644 69.9266 2.00861Z" stroke="black" stroke-opacity="0.67"/>
</g>
<defs>
<clipPath id="clip0_351_9">
<rect width="80" height="14" fill="white"/>
</clipPath>
</defs>
</svg>
